<svg width="29" height="48" viewBox="0 0 29 48" fill="none" xmlns="http://www.w3.org/2000/svg">
<path d="M14.1421 12C15.5421 12 28.1421 11.9 28.1421 8V4C28.1421 0.0999999 15.5421 0 14.1421 0C12.7421 0 0.14209 0.0999999 0.14209 4V8C0.14209 11.9 12.7421 12 14.1421 12ZM2.14209 7.9V6.3C2.44209 6.4 2.74209 6.6 3.14209 6.7V8.6C2.64209 8.3 2.24209 8.1 2.14209 7.9ZM12.1421 8V10C11.0421 10 10.0421 9.9 9.14209 9.8V7.8C10.2421 7.9 11.2421 7.9 12.1421 8ZM7.14209 9.5C6.44209 9.4 5.74209 9.3 5.14209 9.1V7.2C5.74209 7.3 6.44209 7.4 7.14209 7.5V9.5ZM14.1421 10V8C15.2421 8 22.5421 7.9 26.1421 6.3V8C25.6421 8.7 21.2421 10 14.1421 10ZM15.4421 2C15.5421 2 15.7421 2 15.8421 2C16.1421 2 16.3421 2 16.6421 2C16.8421 2 16.9421 2 17.1421 2C17.3421 2 17.6421 2 17.8421 2C18.0421 2 18.1421 2 18.3421 2C18.5421 2 18.7421 2 18.9421 2C19.1421 2 19.2421 2 19.4421 2C19.6421 2 19.8421 2 20.0421 2.1C20.2421 2.1 20.3421 2.1 20.4421 2.2C20.6421 2.2 20.7421 2.2 20.9421 2.3C21.0421 2.3 21.2421 2.3 21.3421 2.4C21.5421 2.4 21.6421 2.4 21.8421 2.5C21.9421 2.5 22.1421 2.5 22.2421 2.6C22.3421 2.6 22.5421 2.7 22.6421 2.7C22.7421 2.7 22.8421 2.8 23.0421 2.8C23.1421 2.8 23.3421 2.9 23.4421 2.9C23.5421 2.9 23.6421 3 23.7421 3C23.8421 3 23.9421 3.1 24.0421 3.1C24.1421 3.1 24.2421 3.2 24.3421 3.2C24.4421 3.2 24.5421 3.3 24.6421 3.3C24.7421 3.3 24.8421 3.4 24.8421 3.4C24.9421 3.4 25.0421 3.5 25.0421 3.5C25.1421 3.5 25.1421 3.6 25.2421 3.6C25.3421 3.6 25.3421 3.7 25.4421 3.7C25.5421 3.7 25.5421 3.8 25.6421 3.8C25.7421 3.8 25.7421 3.9 25.8421 3.9L25.9421 4L26.0421 4.1L26.1421 4.2C25.4421 5 21.1421 6.2 14.2421 6.2C7.34209 6.2 3.04209 5 2.34209 4.2C2.34209 4.2 2.44209 4.2 2.44209 4.1L2.54209 4C2.54209 4 2.64209 4 2.64209 3.9C2.64209 3.9 2.74209 3.8 2.84209 3.8C2.94209 3.8 2.94209 3.7 3.04209 3.7C3.14209 3.7 3.14209 3.6 3.24209 3.6C3.34209 3.6 3.34209 3.5 3.44209 3.5C3.54209 3.5 3.64209 3.4 3.74209 3.4C3.84209 3.4 3.94209 3.3 3.94209 3.3C4.04209 3.3 4.14209 3.2 4.24209 3.2C4.34209 3.2 4.44209 3.1 4.54209 3.1C4.44209 3 4.64209 3 4.74209 3C4.84209 3 4.94209 2.9 5.04209 2.9C5.14209 2.9 5.24209 2.8 5.44209 2.8C5.54209 2.8 5.64209 2.7 5.84209 2.7C5.94209 2.7 6.14209 2.6 6.24209 2.6C6.34209 2.6 6.54209 2.6 6.64209 2.5C6.74209 2.5 6.94209 2.5 7.14209 2.4C7.24209 2.4 7.44209 2.4 7.54209 2.3C7.74209 2.3 7.84209 2.3 8.04209 2.2C8.14209 2.2 8.34209 2.2 8.44209 2.1C8.64209 2.1 8.84209 2.1 9.04209 2C9.24209 2 9.34209 2 9.54209 2C9.74209 2 9.94209 2 10.1421 2C10.3421 2 10.4421 2 10.6421 2C10.8421 2 11.0421 2 11.3421 2C11.5421 2 11.6421 2 11.8421 2C12.1421 2 12.3421 2 12.6421 2C12.7421 2 12.9421 2 13.0421 2C13.4421 2 13.8421 2 14.3421 2C14.8421 2 15.0421 2 15.4421 2Z" fill="#D0D3D5"/>
<path d="M6.64219 25.8C10.3422 25.8 14.5422 25 15.3422 24.9C16.7422 24.6 29.0422 22.1 28.3422 18.3L27.5422 14.4C26.7422 10.6 14.4422 12.9 13.0422 13.2C10.8422 13.6 8.84219 14.2 6.94219 14.8C5.84219 15.2 4.84219 15.5 3.94219 15.9C1.04219 17.2 -0.257813 18.5 0.0421875 19.8L0.842188 23.7001C1.14219 25.3001 3.74219 25.8 6.64219 25.8ZM2.44219 21.6C2.74219 21.7 3.14219 21.7 3.54219 21.8L3.94219 23.6C3.34219 23.5 3.04219 23.4001 2.84219 23.2001L2.44219 21.6ZM2.14219 19.2L2.24219 19.1L2.34219 19L2.44219 18.9L2.54219 18.8C2.64219 18.8 2.64219 18.7 2.74219 18.7C2.84219 18.7 2.84219 18.6 2.94219 18.6C3.04219 18.6 3.04219 18.5 3.14219 18.5C3.24219 18.5 3.24219 18.4 3.34219 18.4C3.44219 18.4 3.54219 18.3 3.64219 18.3C3.74219 18.3 3.84219 18.2 3.94219 18.2C4.04219 18.2 4.14219 18.1 4.24219 18.1C4.34219 18.1 4.44219 18 4.54219 18C4.64219 18 4.74219 17.9 4.84219 17.9C4.94219 17.9 5.04219 17.8 5.14219 17.8C5.24219 17.7 5.44219 17.7 5.54219 17.6C5.64219 17.5 5.74219 17.5 5.94219 17.4C6.04219 17.3 6.24219 17.3 6.34219 17.2C6.44219 17.1 6.64219 17.1 6.74219 17C6.84219 16.9 7.04219 16.9 7.14219 16.8C7.34219 16.7 7.44219 16.7 7.64219 16.6C7.84219 16.6 7.94219 16.5 8.14219 16.5C8.34219 16.4 8.44219 16.4 8.64219 16.3C8.84219 16.3 8.94219 16.2 9.14219 16.2C9.34219 16.1 9.54219 16.1 9.74219 16C9.94219 16 10.0422 15.9 10.2422 15.9C10.4422 15.8 10.6422 15.8 10.8422 15.7C10.9422 15.7 11.1422 15.6 11.2422 15.6C11.4422 15.5 11.7422 15.5 11.9422 15.4H12.0422C12.4422 15.3 12.7422 15.2 13.1422 15.2C13.5422 15.1 14.0422 15 14.4422 15C14.5422 15 14.6422 15 14.7422 15C15.0422 14.9 15.3422 14.9 15.6422 14.9C15.7422 14.9 15.8422 14.9 16.0422 14.8C16.3422 14.8 16.5422 14.7 16.8422 14.7C16.9422 14.7 17.1422 14.7 17.2422 14.7C17.4422 14.7 17.7422 14.6 17.9422 14.6C18.0422 14.6 18.1422 14.6 18.3422 14.6C18.5422 14.6 18.7422 14.6 19.0422 14.5C19.1422 14.5 19.2422 14.5 19.4422 14.5C19.6422 14.5 19.8422 14.5 20.0422 14.5C20.1422 14.5 20.2422 14.5 20.3422 14.5C20.5422 14.5 20.7422 14.5 20.8422 14.5C20.9422 14.5 21.0422 14.5 21.1422 14.5C21.3422 14.5 21.4422 14.5 21.6422 14.5C21.7422 14.5 21.8422 14.5 21.9422 14.5C22.0422 14.5 22.2422 14.5 22.3422 14.5C22.4422 14.5 22.5422 14.5 22.6422 14.5C22.7422 14.5 22.9422 14.5 23.0422 14.5C23.1422 14.5 23.2422 14.5 23.3422 14.5C23.4422 14.5 23.5422 14.5 23.6422 14.5C23.7422 14.5 23.8422 14.5 23.8422 14.5C23.9422 14.5 24.0422 14.5 24.1422 14.5C24.2422 14.5 24.2422 14.5 24.3422 14.5C24.4422 14.5 24.5422 14.5 24.5422 14.5C24.6422 14.5 24.6422 14.5 24.7422 14.5C24.8422 14.5 24.8422 14.5 24.9422 14.6H25.0422C25.0422 14.6 25.1422 14.6 25.1422 14.7C25.1422 14.7 25.2422 14.7 25.2422 14.8C25.2422 14.8 25.2422 14.8 25.3422 14.8C24.7422 15.7 20.8422 17.7 14.0422 19.1C7.24219 20.4 2.84219 20.1 1.94219 19.4C2.04219 19.3 2.04219 19.3 2.14219 19.2C2.14219 19.2 2.14219 19.3 2.14219 19.2ZM12.5422 21.3L12.9422 23.3C11.8422 23.5 10.8422 23.6001 9.94219 23.7001L9.54219 21.7001C10.6422 21.6001 11.7422 21.4 12.5422 21.3ZM5.94219 23.8L5.54219 21.9C5.64219 21.9 5.74219 21.9 5.84219 21.9C6.44219 21.9 7.04219 21.9 7.54219 21.8L7.94219 23.7001C7.24219 23.8001 6.54219 23.8 5.94219 23.8ZM14.9422 22.9L14.5422 20.9C15.6422 20.7 22.7422 19.2 25.9422 16.9L26.2422 18.5C25.9422 19.4 21.9422 21.5 14.9422 22.9Z" fill="#D0D3D5"/>
<path d="M17.1422 32.8C14.0422 31 11.0422 29.6 8.54218 28.8C5.54218 27.9 3.74218 28 3.04218 29.2L1.04218 32.7C-0.957816 36.1 9.94218 42.5 11.1422 43.2C14.2422 45 17.2422 46.4 19.7422 47.2C21.0422 47.6 22.1422 47.8 23.0422 47.8C24.1422 47.8 24.8422 47.5 25.2422 46.8L27.2422 43.3C29.2422 39.9 18.4422 33.5 17.1422 32.8ZM17.2422 35.2C17.3422 35.3 17.4422 35.4 17.6422 35.4C17.8422 35.5 18.1422 35.7 18.3422 35.8C18.4422 35.9 18.6422 36 18.7422 36.1C18.9422 36.2 19.1422 36.3 19.3422 36.5C19.4422 36.6 19.6422 36.7 19.7422 36.8C19.9422 36.9 20.0422 37 20.2422 37.1C20.3422 37.2 20.4422 37.3 20.6422 37.4C20.8422 37.5 20.9422 37.6 21.1422 37.7C21.2422 37.8 21.3422 37.9 21.4422 38C21.5422 38.1 21.7422 38.2 21.8422 38.3C21.9422 38.4 22.0422 38.5 22.1422 38.5C22.2422 38.6 22.4422 38.7 22.5422 38.8C22.6422 38.9 22.7422 39 22.8422 39C22.9422 39.1 23.0422 39.2 23.1422 39.3C23.2422 39.4 23.3422 39.4 23.3422 39.5C23.4422 39.6 23.5422 39.7 23.6422 39.8C23.7422 39.9 23.7422 39.9 23.8422 40C23.9422 40.1 24.0422 40.2 24.1422 40.3C24.2422 40.4 24.2422 40.4 24.3422 40.5C24.4422 40.6 24.5422 40.7 24.5422 40.8C24.6422 40.9 24.6422 40.9 24.6422 41C24.7422 41.1 24.7422 41.2 24.8422 41.2C24.8422 41.3 24.9422 41.3 24.9422 41.3C25.0422 41.4 25.0422 41.4 25.1422 41.5L25.2422 41.6C25.2422 41.7 25.3422 41.7 25.3422 41.8C25.3422 41.8 25.3422 41.9 25.4422 41.9C25.4422 42 25.5422 42 25.5422 42V42.1C25.5422 42.1 25.5422 42.1 25.5422 42.2C24.5422 42.5 20.2422 41.4 14.2422 37.9C8.24218 34.4 5.14218 31.2 4.94218 30.2C4.94218 30.2 4.94218 30.2 5.04218 30.2H5.14218C5.24218 30.2 5.24218 30.2 5.34218 30.2C5.34218 30.2 5.34218 30.2 5.44218 30.2C5.54218 30.2 5.64218 30.2 5.74218 30.2C7.44218 30.4 11.3422 31.6 16.3422 34.5C16.5422 34.8 16.9422 35 17.2422 35.2ZM5.74218 34.5C6.24218 34.9 6.74218 35.4 7.34218 35.8L6.34218 37.5C5.74218 37 5.24218 36.6 4.84218 36.2L5.74218 34.5ZM8.94218 37C9.74218 37.6 10.5422 38.1 11.4422 38.7L10.4422 40.4C9.54218 39.8 8.74218 39.3 7.94218 38.7L8.94218 37ZM3.64218 32.2C3.84218 32.5 4.04218 32.7 4.34218 33L3.44218 34.6C3.04218 34.1 2.94218 33.8 2.84218 33.6L3.64218 32.2ZM12.1422 41.5C12.1422 41.4 12.0422 41.4 12.1422 41.5L13.1422 39.8C16.2422 41.6 19.2422 43 21.7422 43.7C22.7422 44 23.6422 44.2 24.3422 44.3L23.5422 45.7C22.7422 46.1 18.3422 45 12.1422 41.5Z" fill="#D0D3D5"/>
</svg>
