<svg width="66" height="66" viewBox="0 0 66 66" fill="none" xmlns="http://www.w3.org/2000/svg">
<path d="M32.75 0C14.691 0 0 14.691 0 32.75C0 50.809 14.691 65.5 32.75 65.5C50.809 65.5 65.5 50.809 65.5 32.75C65.5 14.691 50.809 0 32.75 0ZM14.123 55.284C15.443 51.945 21.689 49.328 24.748 48.049C25.982 47.534 26.646 47.252 27.088 46.967C28.206 46.245 28.574 45.334 28.686 44.696C28.928 43.315 28.172 42.235 28.018 42.033C27.947 41.94 27.868 41.854 27.78 41.777C23.874 38.348 22.482 33.378 22.482 29.871C22.482 24.635 25.696 19 32.752 19C39.808 19 43.022 24.635 43.022 29.871C43.022 33.378 41.63 38.349 37.724 41.777C37.636 41.854 37.557 41.939 37.487 42.032C37.333 42.234 36.575 43.314 36.817 44.696C36.929 45.335 37.297 46.247 38.415 46.967C38.856 47.253 39.521 47.535 40.756 48.051C43.815 49.328 50.061 51.947 51.381 55.285C46.315 59.477 39.822 62 32.75 62C25.678 62 19.186 59.477 14.123 55.284ZM54.033 52.784C51.567 48.776 45.541 46.258 42.102 44.821C41.441 44.545 40.7 44.235 40.399 44.076C46.071 38.826 46.52 31.902 46.52 29.871C46.52 22.729 41.791 15.5 32.75 15.5C23.709 15.5 18.98 22.729 18.98 29.871C18.98 31.902 19.429 38.826 25.102 44.076C24.802 44.234 24.06 44.544 23.398 44.82C19.959 46.257 13.933 48.776 11.467 52.784C6.533 47.545 3.5 40.497 3.5 32.75C3.5 16.622 16.622 3.5 32.75 3.5C48.879 3.5 62 16.622 62 32.75C62 40.498 58.967 47.546 54.033 52.784Z" fill="#D0D3D5"/>
</svg>
